<?xml version="1.0" encoding="UTF-8" standalone="no"?>
<!-- Generator: Adobe Illustrator 16.0.0, SVG Export Plug-In . SVG Version: 6.00 Build 0)  -->

<svg
   xmlns:dc="http://purl.org/dc/elements/1.1/"
   xmlns:cc="http://creativecommons.org/ns#"
   xmlns:rdf="http://www.w3.org/1999/02/22-rdf-syntax-ns#"
   xmlns:svg="http://www.w3.org/2000/svg"
   xmlns="http://www.w3.org/2000/svg"
   xmlns:sodipodi="http://sodipodi.sourceforge.net/DTD/sodipodi-0.dtd"
   xmlns:inkscape="http://www.inkscape.org/namespaces/inkscape"
   version="1.1"
   id="Layer_1"
   x="0px"
   y="0px"
   width="24"
   height="23"
   viewBox="0 0 24 22.999999"
   xml:space="preserve"
   sodipodi:docname="logo-bco.svg"
   inkscape:version="0.92.3 (2405546, 2018-03-11)"><metadata
   id="metadata458"><rdf:RDF><cc:Work
       rdf:about=""><dc:format>image/svg+xml</dc:format><dc:type
         rdf:resource="http://purl.org/dc/dcmitype/StillImage" /><dc:title></dc:title></cc:Work></rdf:RDF></metadata><defs
   id="defs456" /><sodipodi:namedview
   pagecolor="#ffffff"
   bordercolor="#666666"
   borderopacity="1"
   objecttolerance="10"
   gridtolerance="10"
   guidetolerance="10"
   inkscape:pageopacity="0"
   inkscape:pageshadow="2"
   inkscape:window-width="1366"
   inkscape:window-height="716"
   id="namedview454"
   showgrid="false"
   showguides="true"
   inkscape:guide-bbox="true"
   inkscape:zoom="4.6091836"
   inkscape:cx="89.93902"
   inkscape:cy="-6.1833076"
   inkscape:window-x="-8"
   inkscape:window-y="-8"
   inkscape:window-maximized="1"
   inkscape:current-layer="g451"><sodipodi:guide
     position="-34.85137,58.460362"
     orientation="0,1"
     id="guide460"
     inkscape:locked="false" /><sodipodi:guide
     position="-1.6863566,19.67416"
     orientation="0,1"
     id="guide462"
     inkscape:locked="false" /><sodipodi:guide
     position="2.2484755,58.460361"
     orientation="0,1"
     id="guide464"
     inkscape:locked="false" /><sodipodi:guide
     position="82.631475,150.08574"
     orientation="0,1"
     id="guide466"
     inkscape:locked="false" /></sodipodi:namedview>
<g
   id="g451"
   transform="translate(-123.73132,-18.450506)">
	<path
   style="clip-rule:evenodd;fill:#f2f2f2;fill-rule:evenodd;stroke-width:1"
   d="m 139.63397,22.149188 c 0.67014,0.937481 0.97109,2.74777 0.39109,4.43941 -4.61,1.736453 -9.56016,3.570166 -14.53885,5.445127 0,-3.851257 0,0 0,-3.851257 4.75819,-2.040458 9.29945,-3.953611 14.14776,-6.03328 z"
   id="path385"
   inkscape:connector-curvature="0" />
	<path
   style="clip-rule:evenodd;fill:#f2f2f2;fill-rule:evenodd;stroke-width:1"
   d="m 145.18095,40.233752 c -1.8047,0 -3.55897,0 -5.52813,0 1.59539,-3.71224 1.70945,-4.005043 2.27418,-6.088785 0.58357,-2.152998 1.02609,-4.173087 1.22774,-6.581205 0.23629,-2.818043 0.079,-4.686893 0.079,-7.08279 0.72209,0 1.29038,0 1.94779,0 -5.1e-4,6.582223 -5.1e-4,13.138984 -5.1e-4,19.75278 z"
   id="path387"
   inkscape:connector-curvature="0" />
	<path
   style="clip-rule:evenodd;fill:#f2f2f2;fill-rule:evenodd;stroke-width:1"
   d="m 125.47705,39.135866 c 0,-1.526143 0,-2.605187 0,-3.504477 4.75004,-1.469109 9.39059,-2.90461 14.23942,-4.404274 -0.0641,2.11175 -0.33609,3.115939 -1.22469,4.595742 -4.21433,1.072934 -8.50912,2.165728 -13.01473,3.313009 z"
   id="path389"
   inkscape:connector-curvature="0" />
	<path
   style="clip-rule:evenodd;fill:#f2f2f2;fill-rule:evenodd;stroke-width:1"
   d="m 132.3037,20.480972 c -2.1255,1.066823 -4.60541,2.501815 -6.81749,3.611922 0,-1.109089 0,-2.280812 0,-3.611922"
   id="path391"
   inkscape:connector-curvature="0" />
	<g
   id="g403"
   transform="matrix(0.45155854,0,0,0.45155854,127.75214,20.592)"
   style="fill:#ffffff;stroke-width:2.21455264">
		<path
   d="m 70.513,25.439 c 0,1.978 -0.577,3.586 -1.729,4.827 -1.669,1.796 -4.213,2.694 -7.631,2.694 H 49.865 V 6.5 h 10.493 c 5.087,0 7.631,2.3 7.631,6.901 0,1.383 -0.278,2.539 -0.835,3.47 -0.464,0.789 -1.179,1.46 -2.146,2.016 2.165,0.439 3.643,1.286 4.435,2.539 0.714,1.151 1.07,2.489 1.07,4.013 z M 61.451,14.313 c 0,-1.202 -0.554,-1.997 -1.662,-2.384 C 59.393,11.8 58.866,11.735 58.206,11.735 H 56.92 v 5.176 h 1.286 c 1.213,0 2.084,-0.291 2.612,-0.872 0.422,-0.467 0.633,-1.041 0.633,-1.726 z m 2.007,10.661 c 0,-1.538 -0.813,-2.443 -2.437,-2.714 -0.515,-0.078 -1.4,-0.117 -2.655,-0.117 H 56.92 v 5.583 h 1.565 c 1.796,0 3.051,-0.207 3.765,-0.62 0.805,-0.465 1.208,-1.175 1.208,-2.132 z"
   id="path393"
   inkscape:connector-curvature="0"
   style="fill:#ffffff;stroke-width:2.21455264" />
		<path
   d="M 94.528,32.96 H 85.764 L 79.027,22.802 V 32.96 H 71.972 V 6.5 h 10.97 c 3.206,0 5.577,0.937 7.114,2.811 1.245,1.512 1.868,3.289 1.868,5.331 0,2.339 -0.715,4.206 -2.146,5.602 -0.914,0.892 -2.173,1.512 -3.776,1.861 z M 84.611,15.02 c 0,-0.94 -0.352,-1.733 -1.057,-2.377 -0.665,-0.605 -1.736,-0.909 -3.211,-0.909 h -1.316 v 6.591 h 1.316 c 1.489,0 2.56,-0.302 3.211,-0.908 0.705,-0.658 1.057,-1.457 1.057,-2.397 z"
   id="path395"
   inkscape:connector-curvature="0"
   style="fill:#ffffff;stroke-width:2.21455264" />
		<path
   d="m 123.253,19.817 c 0,3.593 -1.227,6.746 -3.678,9.46 -2.795,3.089 -6.578,4.633 -11.348,4.633 -4.756,0 -8.531,-1.544 -11.327,-4.633 -2.451,-2.714 -3.677,-5.867 -3.677,-9.46 0,-1.641 0.331,-3.324 0.994,-5.049 0.663,-1.726 1.55,-3.202 2.663,-4.43 2.794,-3.088 6.578,-4.633 11.347,-4.633 4.769,0 8.553,1.544 11.348,4.633 2.451,2.714 3.678,5.874 3.678,9.479 z m -7.315,0 c 0,-1.866 -0.611,-3.479 -1.832,-4.839 -1.568,-1.736 -3.527,-2.604 -5.879,-2.604 -1.619,0 -3.088,0.444 -4.402,1.331 -1.316,0.888 -2.252,2.07 -2.811,3.547 -0.318,0.842 -0.477,1.698 -0.477,2.565 0,1.789 0.609,3.389 1.832,4.801 1.514,1.75 3.467,2.624 5.857,2.624 2.39,0 4.35,-0.868 5.879,-2.604 1.222,-1.387 1.833,-2.993 1.833,-4.821 z"
   id="path397"
   inkscape:connector-curvature="0"
   style="fill:#ffffff;stroke-width:2.21455264" />
		<path
   d="m 150.446,32.96 h -7.532 l -1.748,-4.614 h -9.738 l -1.868,4.614 h -7.452 L 132.541,6.5 h 7.69 z m -11.188,-9.847 -2.921,-8.432 -2.962,8.432 z"
   id="path399"
   inkscape:connector-curvature="0"
   style="fill:#ffffff;stroke-width:2.21455264" />
		<path
   d="m 174.303,19.721 c 0,2.752 -0.852,5.302 -2.554,7.647 -1.702,2.345 -3.879,3.971 -6.528,4.875 -1.404,0.479 -2.835,0.717 -4.292,0.717 H 150.515 V 6.5 h 10.414 c 2.543,0 4.901,0.691 7.074,2.074 2.133,1.344 3.77,3.141 4.909,5.389 0.927,1.861 1.391,3.781 1.391,5.758 z m -7.314,0 c 0,-1.827 -0.524,-3.42 -1.573,-4.781 -1.395,-1.801 -3.472,-2.701 -6.233,-2.701 h -1.613 v 14.984 h 1.613 c 2.775,0 4.853,-0.9 6.233,-2.702 1.049,-1.373 1.573,-2.973 1.573,-4.8 z"
   id="path401"
   inkscape:connector-curvature="0"
   style="fill:#ffffff;stroke-width:2.21455264" />
	</g>
	<g
   id="g449"
   transform="matrix(1.9960365,0,0,1.9960365,114.0618,-55.498326)"
   style="fill:#ffffff;stroke-width:0.50099283">
		<path
   style="fill:#ffffff;stroke-width:0.50099283"
   d="m 51.552,45.218 v -4.703 h -1.668 v -0.958 h 4.463 v 0.958 h -1.662 v 4.703 z"
   id="path405"
   inkscape:connector-curvature="0" />
		<path
   style="fill:#ffffff;stroke-width:0.50099283"
   d="m 55.382,45.218 v -5.661 h 4.169 v 0.958 h -3.036 v 1.254 h 2.825 v 0.953 h -2.825 v 1.544 h 3.142 v 0.952 z"
   id="path407"
   inkscape:connector-curvature="0" />
		<path
   style="fill:#ffffff;stroke-width:0.50099283"
   d="m 60.921,45.218 v -5.661 h 1.139 v 4.709 h 2.819 v 0.952 z"
   id="path409"
   inkscape:connector-curvature="0" />
		<path
   style="fill:#ffffff;stroke-width:0.50099283"
   d="m 66.02,45.218 v -5.661 h 4.169 v 0.958 h -3.036 v 1.254 h 2.825 v 0.953 h -2.825 v 1.544 h 3.142 v 0.952 z"
   id="path411"
   inkscape:connector-curvature="0" />
		<path
   style="fill:#ffffff;stroke-width:0.50099283"
   d="m 75.16,43.13 1.098,0.354 c -0.333,1.215 -1.112,1.822 -2.337,1.822 -0.877,0 -1.523,-0.289 -1.938,-0.868 -0.415,-0.578 -0.623,-1.245 -0.623,-2.001 0,-0.901 0.232,-1.621 0.696,-2.161 0.464,-0.539 1.109,-0.809 1.935,-0.809 1.194,0 1.944,0.552 2.25,1.656 l -1.122,0.267 c -0.145,-0.631 -0.54,-0.946 -1.184,-0.946 -0.934,0 -1.4,0.637 -1.4,1.91 0,1.317 0.459,1.976 1.377,1.976 0.648,0.001 1.064,-0.399 1.248,-1.2 z"
   id="path413"
   inkscape:connector-curvature="0" />
		<path
   style="fill:#ffffff;stroke-width:0.50099283"
   d="m 77.299,42.42 c 0,-0.913 0.24,-1.634 0.719,-2.161 0.479,-0.527 1.146,-0.791 2,-0.791 0.967,0 1.664,0.289 2.091,0.868 0.427,0.578 0.64,1.265 0.64,2.061 0,0.896 -0.241,1.606 -0.722,2.128 -0.481,0.522 -1.145,0.782 -1.991,0.782 -0.854,0 -1.523,-0.258 -2.009,-0.773 -0.486,-0.515 -0.728,-1.22 -0.728,-2.114 z m 1.174,-0.036 c 0,0.586 0.136,1.057 0.407,1.413 0.271,0.355 0.654,0.533 1.15,0.533 0.519,0 0.906,-0.187 1.161,-0.56 0.255,-0.374 0.383,-0.842 0.383,-1.404 0,-1.281 -0.515,-1.922 -1.544,-1.922 -1.038,10e-4 -1.557,0.647 -1.557,1.94 z"
   id="path415"
   inkscape:connector-curvature="0" />
		<path
   style="fill:#ffffff;stroke-width:0.50099283"
   d="m 83.924,45.218 v -5.661 h 1.701 l 1.015,3.863 1.009,-3.863 h 1.702 v 5.661 H 88.3 v -4.454 l -1.114,4.454 h -1.1 l -1.11,-4.454 v 4.454 z"
   id="path417"
   inkscape:connector-curvature="0" />
		
		
		
		
		
		
		
		
		
		
		
		
		
		
		
	</g>
<rect
   style="fill:#1a1a1a;fill-opacity:1;stroke-width:1"
   id="rect471"
   width="0.57248825"
   height="19.750845"
   x="208.83955"
   y="20.560539" /></g>
</svg>